<?xml version="1.0" standalone="no"?>
<!DOCTYPE svg PUBLIC "-//W3C//DTD SVG 20010904//EN"
 "http://www.w3.org/TR/2001/REC-SVG-20010904/DTD/svg10.dtd">
<svg version="1.0" xmlns="http://www.w3.org/2000/svg"
 width="500.000000pt" height="500.000000pt" viewBox="0 0 500.000000 500.000000"
 preserveAspectRatio="xMidYMid meet">

<g transform="translate(0.000000,500.000000) scale(0.100000,-0.100000)"
fill="#000000" stroke="none">
<path d="M1998 4375 c-2 -3 -40 -10 -83 -16 -87 -12 -150 -46 -181 -99 -10
-16 -20 -27 -24 -25 -18 11 -17 -219 1 -241 13 -16 12 -16 -9 -5 -29 16 -158
-3 -184 -27 -24 -21 -23 -44 17 -292 19 -118 45 -277 57 -354 20 -123 25 -139
45 -149 27 -12 149 3 146 18 -1 6 22 11 50 12 29 1 106 12 172 24 66 13 139
22 161 21 27 -1 44 3 47 11 3 9 24 12 67 11 53 -1 63 2 67 17 3 11 10 19 15
19 5 0 7 -4 3 -9 -9 -16 27 -18 70 -5 22 7 65 18 95 24 30 6 68 14 83 17 47 9
51 50 21 203 -6 33 -47 257 -81 445 -8 50 -22 100 -30 113 -14 22 -19 23 -99
20 -69 -3 -86 -8 -98 -23 -13 -19 -15 -17 -21 20 -23 137 -72 221 -149 256
-37 17 -145 27 -158 14z m134 -76 c44 -21 76 -55 83 -87 2 -9 9 -33 14 -52 18
-57 15 -70 -18 -70 -27 0 -29 3 -36 48 -8 59 -35 119 -69 155 -32 33 -29 33
26 6z m-129 -13 c52 -21 94 -77 107 -141 14 -66 9 -73 -46 -82 -21 -4 -45 -13
-53 -20 -10 -11 -27 -13 -65 -8 -28 4 -54 9 -58 11 -3 2 -9 30 -13 62 -8 70 8
115 56 161 37 36 31 35 72 17z m-170 -38 c-13 -25 -18 -57 -18 -125 0 -51 3
-93 7 -93 5 0 8 -10 8 -22 0 -21 -1 -21 -13 -3 -8 10 -19 15 -24 12 -16 -10
-30 13 -37 65 -10 64 8 121 50 163 43 43 49 44 27 3z m371 -183 c3 -8 1 -15
-4 -15 -6 0 -10 6 -10 13 0 8 -4 7 -10 -3 -5 -8 -10 -10 -10 -4 0 25 25 32 34
9z m36 11 c0 -3 -4 -8 -10 -11 -5 -3 -10 -1 -10 4 0 6 5 11 10 11 6 0 10 -2
10 -4z m10 -26 c0 -5 -5 -10 -11 -10 -5 0 -7 5 -4 10 3 6 8 10 11 10 2 0 4 -4
4 -10z m-353 -52 c-3 -7 -5 -2 -5 12 0 14 2 19 5 13 2 -7 2 -19 0 -25z m-132
2 c3 -6 -1 -7 -9 -4 -18 7 -21 14 -7 14 6 0 13 -4 16 -10z m-75 -26 c0 -2 -9
-4 -20 -4 -11 0 -20 4 -20 9 0 5 9 7 20 4 11 -3 20 -7 20 -9z m70 1 c0 -12
-19 -12 -23 0 -4 9 -1 12 9 8 7 -3 14 -7 14 -8z m-115 -15 c3 -6 -1 -7 -9 -4
-18 7 -21 14 -7 14 6 0 13 -4 16 -10z m12 -112 c-3 -7 -5 -2 -5 12 0 14 2 19
5 13 2 -7 2 -19 0 -25z m130 10 c-3 -8 -6 -5 -6 6 -1 11 2 17 5 13 3 -3 4 -12
1 -19z m-138 -71 c1 -5 -3 -5 -9 -2 -5 3 -10 16 -9 28 0 21 1 21 9 2 5 -11 9
-24 9 -28z m591 -19 c16 -18 30 -28 30 -21 0 6 -10 19 -22 27 -12 9 -18 16
-12 16 19 0 45 -36 38 -54 -3 -9 -1 -16 5 -16 6 0 11 -7 11 -16 0 -10 6 -14
14 -11 10 4 13 1 10 -7 -3 -7 3 -19 13 -27 17 -13 17 -13 3 5 -14 18 -13 19 4
13 14 -6 17 -4 12 9 -4 10 1 25 10 35 21 23 64 25 64 4 0 -8 3 -15 8 -15 4 0
7 -17 8 -38 2 -94 17 -202 27 -195 7 4 8 0 3 -12 -4 -11 -2 -22 5 -26 9 -5 8
-15 -7 -36 -10 -15 -18 -31 -16 -35 1 -4 -5 -5 -13 -2 -21 8 -19 -13 3 -25 9
-6 12 -11 7 -11 -6 0 -16 5 -23 12 -8 8 -19 5 -45 -15 -19 -14 -40 -25 -48
-23 -31 5 -100 58 -125 96 -15 22 -29 40 -31 40 -2 0 -1 -5 3 -12 4 -7 3 -8
-4 -4 -7 4 -12 13 -12 20 0 7 -14 25 -32 42 -18 16 -26 21 -19 11 8 -9 12 -19
10 -21 -2 -2 -13 8 -23 22 -11 14 -14 22 -7 17 10 -5 12 -2 7 14 -3 11 -8 29
-11 39 -2 9 0 24 6 32 9 12 10 11 4 -5 -6 -19 -5 -18 14 2 23 25 27 38 9 27
-8 -4 -10 -3 -5 2 5 5 23 10 40 11 42 2 41 1 27 18 -11 13 -10 14 3 10 8 -4
18 -1 23 6 5 8 3 10 -6 4 -10 -6 -12 -4 -7 8 3 9 -1 18 -10 21 -9 4 -13 9 -10
12 3 4 -4 14 -16 24 -21 18 -22 18 -3 39 27 30 52 26 86 -11z m83 17 c-3 -9
-8 -14 -10 -11 -3 3 -2 9 2 15 9 16 15 13 8 -4z m-123 -410 c0 -5 -5 -3 -10 5
-5 8 -10 20 -10 25 0 6 5 3 10 -5 5 -8 10 -19 10 -25z m200 -50 c-7 -8 -17
-15 -23 -15 -6 0 -2 7 9 15 25 19 30 19 14 0z"/>
<path d="M1978 4043 c7 -3 16 -2 19 1 4 3 -2 6 -13 5 -11 0 -14 -3 -6 -6z"/>
<path d="M3250 4098 c0 -6 -9 -22 -21 -34 -22 -23 -19 -44 7 -44 9 0 14 -10
14 -27 0 -24 1 -25 18 -11 9 9 26 18 37 20 16 3 20 11 21 46 0 35 -3 42 -19
42 -10 0 -27 5 -38 10 -14 8 -19 7 -19 -2z"/>
<path d="M3300 3935 c-5 -14 -10 -39 -10 -55 0 -16 -4 -51 -10 -77 -5 -26 -11
-66 -13 -88 -2 -22 -12 -100 -22 -173 -10 -73 -15 -135 -12 -138 7 -7 155 45
163 57 3 5 14 9 24 9 20 0 44 10 160 63 36 16 87 38 115 47 27 10 51 23 53 29
3 10 -56 70 -71 71 -5 0 -27 16 -50 35 -54 45 -117 95 -153 120 -15 11 -42 32
-59 46 -16 14 -47 38 -67 53 l-38 28 -10 -27z"/>
<path d="M2767 3170 c-54 -42 -20 -129 45 -116 37 7 57 31 58 67 0 57 -57 85
-103 49z"/>
<path d="M1974 3046 c-18 -8 -49 -12 -75 -9 -76 9 -65 45 -164 -547 -20 -119
-19 -147 6 -160 28 -15 77 -3 93 23 8 12 24 83 36 157 29 182 26 173 55 154
20 -13 30 -13 65 -3 58 18 67 6 52 -69 -16 -77 -15 -117 3 -151 15 -30 59 -51
105 -51 35 0 109 26 130 45 14 12 23 13 49 4 41 -14 97 -6 133 21 19 14 35 18
57 14 17 -4 31 -9 31 -13 0 -3 -20 -17 -45 -30 -67 -35 -105 -83 -105 -131 0
-56 15 -87 52 -110 63 -38 170 -21 231 38 27 26 49 86 62 169 6 36 13 46 48
67 23 13 57 38 76 55 32 29 37 30 97 24 58 -5 66 -4 99 21 32 24 39 26 67 17
105 -37 210 30 249 160 11 37 19 80 17 96 -2 24 -8 28 -36 31 -43 4 -59 -10
-67 -61 -4 -23 -14 -55 -23 -72 -26 -51 -71 -81 -86 -56 -3 4 6 81 21 170 25
155 25 162 8 181 -21 24 -67 26 -89 5 -9 -9 -34 -15 -63 -15 -62 -1 -128 -30
-146 -67 -8 -15 -22 -80 -32 -143 -12 -83 -24 -128 -43 -160 -25 -43 -53 -73
-61 -64 -2 2 9 80 25 174 21 128 26 175 18 188 -14 23 -77 28 -93 8 -7 -9 -23
-78 -36 -154 -24 -147 -40 -196 -72 -225 -23 -20 -53 -13 -53 12 0 9 9 68 20
131 22 125 25 187 11 209 -12 19 -68 16 -90 -3 -12 -11 -37 -16 -73 -16 -63 0
-114 -27 -136 -72 -7 -15 -22 -85 -34 -158 -23 -138 -43 -180 -88 -180 -24 0
-25 9 -4 103 16 72 16 75 -5 121 l-21 48 21 40 c27 53 29 146 5 183 -39 60
-129 82 -202 51z m74 -118 c16 -16 15 -79 -2 -100 -7 -10 -24 -18 -37 -18 -13
0 -37 -7 -53 -15 -16 -9 -31 -13 -34 -11 -2 3 -1 26 3 52 11 75 85 130 123 92z
m1038 -44 c10 -41 -22 -204 -44 -227 -26 -26 -52 -16 -52 20 1 70 30 218 46
230 22 16 43 6 50 -23z m-627 -83 c26 -16 8 -199 -24 -248 -9 -13 -24 -23 -35
-23 -16 0 -20 7 -20 38 0 75 22 207 38 225 17 19 21 20 41 8z m150 -463 c-14
-51 -70 -89 -82 -55 -7 22 4 42 36 65 46 32 58 29 46 -10z"/>
<path d="M1085 2910 c-3 -5 -4 -13 -2 -18 9 -13 11 -156 3 -177 -4 -11 -36
-45 -72 -75 -35 -30 -64 -58 -64 -62 0 -8 51 -23 129 -38 56 -10 85 -35 98
-80 10 -38 54 -130 61 -130 4 0 27 37 52 81 24 44 51 84 60 88 15 8 85 20 153
25 21 2 40 6 43 9 4 3 -19 36 -50 72 -65 77 -73 101 -57 164 23 84 25 121 7
121 -15 0 -68 -21 -118 -46 -14 -8 -36 -14 -49 -14 -23 0 -143 63 -154 80 -8
13 -32 13 -40 0z"/>
<path d="M3665 2801 c-17 -22 -41 -45 -54 -51 -23 -10 -23 -11 -6 -30 10 -11
24 -20 30 -20 7 0 20 -19 30 -42 l17 -42 19 24 c10 14 19 31 19 38 0 6 6 12
14 12 8 0 23 8 35 18 l21 17 -38 41 c-20 23 -42 49 -47 59 -9 14 -14 11 -40
-24z"/>
<path d="M3974 2786 c-8 -22 3 -33 18 -18 9 9 9 15 0 24 -9 9 -13 7 -18 -6z"/>
<path d="M950 2747 c0 -21 12 -28 27 -16 19 16 16 29 -7 29 -11 0 -20 -6 -20
-13z"/>
<path d="M3870 2595 l-23 -25 21 -23 c12 -13 19 -27 15 -30 -3 -4 -4 -7 0 -7
3 0 19 14 36 30 l30 30 -23 25 c-13 14 -25 25 -28 25 -2 0 -15 -11 -28 -25z"/>
<path d="M3679 2235 c-12 -13 -21 -14 -44 -5 -43 16 -118 -4 -149 -41 -29 -34
-30 -37 -51 -153 -9 -50 -23 -105 -30 -123 -14 -32 -58 -63 -72 -50 -3 4 1 51
10 105 24 138 23 155 -15 187 -28 24 -37 26 -82 21 -28 -3 -70 -7 -94 -8 -54
-4 -64 -17 -81 -105 -36 -192 -43 -219 -63 -240 -23 -25 -43 -29 -53 -12 -4 5
5 76 21 156 l27 146 -23 19 c-27 22 -50 23 -76 3 -10 -8 -38 -15 -61 -15 -105
0 -135 -36 -164 -194 -23 -129 -41 -176 -64 -176 -18 0 -19 19 -3 127 12 80
11 83 -11 107 -13 14 -45 30 -72 37 -34 9 -49 18 -49 29 0 45 -81 67 -113 32
-19 -21 -22 -74 -6 -103 8 -15 6 -42 -6 -102 -20 -99 -46 -161 -73 -176 -49
-26 -51 -13 -22 137 28 144 27 179 -6 194 -21 10 -31 9 -56 -5 -16 -9 -48 -17
-70 -17 -48 0 -104 -25 -124 -55 -8 -12 -23 -68 -34 -125 -19 -97 -31 -130
-51 -130 -5 0 -9 28 -9 63 0 50 -5 70 -25 100 l-26 37 23 31 c19 26 23 43 23
106 0 71 -1 76 -30 99 -36 29 -99 39 -150 25 -24 -6 -44 -7 -56 -1 -10 6 -26
10 -36 10 -43 0 -54 -22 -83 -170 -92 -465 -96 -492 -66 -512 20 -14 37 -8 66
21 29 29 30 29 72 14 71 -24 173 1 222 56 11 12 31 21 48 21 16 0 38 5 48 10
15 8 27 4 56 -15 46 -31 68 -31 129 -1 38 20 53 23 68 14 32 -17 105 -3 151
29 47 33 81 105 99 211 11 67 28 86 53 60 12 -12 13 -23 5 -59 -17 -73 -14
-136 8 -158 42 -42 128 -45 171 -6 16 14 24 15 59 4 37 -11 45 -10 92 14 43
21 56 23 81 15 17 -6 48 -7 76 -2 26 4 56 6 68 5 46 -5 63 27 89 164 14 72 33
145 42 162 15 31 48 52 61 39 3 -4 0 -41 -8 -84 -23 -138 -24 -154 -5 -188 18
-35 39 -44 97 -44 37 0 108 27 108 41 0 4 16 2 35 -3 l34 -11 -52 -31 c-56
-34 -97 -85 -97 -122 0 -68 53 -114 133 -114 100 0 163 66 182 190 6 41 12 48
68 85 79 52 131 121 153 202 14 52 15 65 4 78 -19 23 -62 15 -76 -15 -57 -124
-94 -183 -108 -169 -3 2 9 72 25 154 34 168 31 195 -19 195 -15 0 -35 -7 -43
-15z m-45 -113 c9 -27 -29 -190 -49 -212 -19 -21 -50 -27 -59 -11 -6 8 16 133
35 204 8 32 14 37 39 37 19 0 31 -6 34 -18z m-1856 -74 c7 -7 12 -24 12 -38 0
-35 -17 -50 -57 -50 -70 0 -109 -84 -62 -131 17 -17 30 -20 60 -16 28 4 42 0
53 -12 22 -25 21 -55 -1 -46 -37 14 -110 17 -132 5 -13 -6 -25 -9 -28 -6 -8 7
34 217 49 251 20 44 81 68 106 43z m1082 -33 c9 -11 9 -35 -3 -110 -16 -100
-27 -125 -57 -125 -27 0 -29 18 -13 120 18 113 42 152 73 115z m-714 -115 c22
-22 -15 -214 -44 -229 -38 -20 -46 1 -33 86 17 116 29 153 49 153 10 0 23 -5
28 -10z m1404 -213 c0 -31 -27 -67 -51 -67 -30 0 -25 44 9 69 35 26 42 26 42
-2z m-1801 -26 c19 -12 5 -30 -36 -48 -36 -15 -63 -6 -63 21 0 31 64 49 99 27z"/>
<path d="M1236 1624 c4 -16 8 -45 8 -64 0 -19 -4 -48 -8 -64 -8 -27 -7 -28 15
-20 30 11 105 10 139 -1 23 -8 24 -7 11 9 -11 12 -12 35 -7 92 5 70 5 75 -12
68 -23 -11 -101 -11 -131 0 -22 8 -23 7 -15 -20z"/>
<path d="M3315 1410 c-146 -22 -268 -71 -403 -162 -105 -71 -150 -88 -180 -69
-10 6 -6 16 17 40 39 41 41 82 6 116 -34 35 -78 33 -115 -5 -25 -25 -30 -39
-30 -79 0 -44 -2 -49 -37 -68 -50 -27 -136 -49 -258 -68 -74 -11 -189 -15
-441 -15 -323 0 -362 -3 -429 -30 -11 -4 -40 -13 -64 -20 -41 -11 -110 -64
-98 -76 3 -3 29 8 58 24 75 41 181 57 364 55 564 -7 562 -7 690 22 66 15 148
37 183 50 57 21 66 22 90 9 15 -8 53 -14 86 -14 56 0 62 3 175 78 304 204 609
226 931 69 88 -43 89 -44 55 -15 -151 124 -396 189 -600 158z m-611 -151 c-9
-10 -21 -19 -26 -19 -14 0 -9 33 9 52 15 17 18 17 26 3 6 -11 3 -22 -9 -36z"/>
<path d="M1570 1389 c-10 -18 -9 -20 12 -17 12 2 24 11 26 21 5 24 -25 22 -38
-4z"/>
<path d="M1355 1322 c-40 -3 -41 -3 -40 -45 l0 -42 45 0 45 0 0 42 c-1 23 -3
43 -5 45 -3 2 -23 2 -45 0z"/>
</g>
</svg>
